<svg width="257" height="36" viewBox="0 0 257 36" fill="none" xmlns="http://www.w3.org/2000/svg">
<path d="M67.0696 31.2017V29.6945L66.5506 19.3797L65.735 17.8254L66.3282 15.8472L67.0696 4.26057L67.2179 1.05778L64.1781 0.728079L59.8779 0.775177V4.54317L60.6193 5.20257L59.8779 6.66267V10.7133L57.4313 8.16987L56.8382 7.98147L54.9847 6.09747L48.312 0.25708L42.4549 1.29328V3.74248L42.7515 8.64087L43.0481 11.3256L42.7515 21.1224L43.4188 22.0644L42.8256 23.4303L42.3808 30.1184V30.9191L42.6032 31.343L42.0842 35.111L45.2723 35.4878L49.6466 35.3936L49.7948 32.3792L49.5724 31.7198L49.6466 26.8214L48.9793 25.0317L49.35 23.3361L49.4983 12.5973L48.6086 11.985L48.5345 11.8908L49.5724 10.1952V7.65177L51.5001 9.34737L54.5398 12.0321L56.6899 13.6806L57.7279 14.7168L58.7658 15.4233L59.9521 16.695L60.0262 21.5934L60.2486 22.4883L60.0262 22.7238L59.9521 27.2453L60.0262 31.7198L59.9521 35.3936L62.4729 35.4878L66.5506 35.4407L67.5144 33.8393L67.0696 31.2017Z" fill="#272934"/>
<path d="M78.2028 0.669434L75.2951 3.67898L75.2259 4.91017L76.6798 6.07298L77.9259 6.96222L78.3413 7.57776L79.2413 7.85134L80.626 6.2782L82.703 4.36299L81.9413 2.99496L79.5183 0.737798L78.2028 0.669434ZM78.2689 9.06333L74.8061 9.17282L75.1746 10.9977L75.8376 11.1803L75.2482 11.8373L75.4692 19.1371L75.985 20.0497L75.7639 22.0571L75.5428 23.1886V30.014V31.328L76.4271 31.9485L75.5428 32.6785L74.5115 35.9269L77.9006 35.9634L79.4478 35.9999L82.6895 35.489L82.7632 34.1385L82.6159 33.445L82.4685 32.8975V22.7871L81.658 22.5316L82.3211 21.7651L82.1739 20.8527L81.8791 19.4292L82.1001 17.5677L82.3211 12.7863L82.6895 11.8738L83.058 9.20931L78.2689 9.06333Z" fill="#272934"/>
<path d="M103.236 15.7975L103.306 19.7068L103.587 20.272L103.727 20.6488L103.306 28.0906L103.236 28.3732L100.855 24.8878L99.735 24.982L99.665 23.5219L95.5332 18.9532L94.2727 17.5873L95.1831 16.6453L96.7937 14.5729L99.5249 11.5585L104.847 6.51885L104.777 5.85946L107.228 4.44645L108.839 2.60956L107.018 1.47916L106.248 1.10236L103.587 0.0661621L100.295 3.12766L100.435 3.64576L96.7237 6.66016L96.0234 7.93185L90.7012 13.3954L89.3706 15.091L89.0205 15.4207L87.97 15.8917L87.83 19.3771L91.1914 22.8154L93.2923 24.7465L94.9029 26.8189L94.973 26.866L98.4044 31.0108L100.855 33.5071L101.696 34.6375L102.606 35.8621L109.259 35.3911L109.189 33.2716L108.559 32.6122L109.189 32.3296L109.539 20.6488L109.329 20.3662L110.169 17.0221L109.329 15.6091L103.236 15.7975Z" fill="#272934"/>
<path d="M118.63 27.427L118.764 30.3943L119.705 31.1008L118.63 31.9957L118.429 35.1514L122.662 35.434L125.417 35.3398L125.484 33.5971L125.282 31.4776L124.879 28.9813L124.947 28.84L125.282 20.6446L130.524 19.0903H130.591L134.488 18.478L134.421 19.3258L134.623 19.9852L134.488 27.2386L135.496 27.9922L134.824 28.4161L134.354 33.6913L135.227 35.3398H139.125L141.611 35.2456L141.477 32.6551L141.006 31.4776L140.872 25.4488L140.738 17.0179L140.603 16.0759L140.402 13.9564L140.738 9.52899L140.133 8.16309L140.805 7.55079L140.872 5.761V5.80809L141.275 3.1234L141.477 0.768403L137.647 0.674205L135.16 0.627101L134.152 1.993L134.488 3.877L134.623 8.116L134.824 12.4021L134.556 13.6738L133.816 13.9093L132.54 14.3332L129.785 15.181L129.18 15.6991L128.105 15.4165L125.282 16.123L125.148 16.1701L124.543 11.6014L124.812 8.49279L124.073 8.06889L124.879 7.17399L125.215 4.3009L125.484 0.909704L119.705 0.391602L118.093 1.1452L118.563 4.0654L118.361 5.0074L118.563 8.116L119.033 11.0362L118.764 15.652L119.235 20.9743L118.63 27.427Z" fill="#272934"/>
<path d="M162.809 0.580509L159.586 0.722188C158.606 0.722188 157.695 0.722188 156.644 0.674962C156.084 0.674962 155.453 1.00555 155.033 1.00555L153.702 0.627734L146.907 0.391602L146.697 7.43455L147.538 8.00128L151.811 7.90683C152.021 7.90683 152.441 7.8596 152.932 7.76515L153.282 7.529L154.823 7.67069L155.243 9.60699L154.963 12.6295L155.383 14.8492L155.033 21.3131L154.683 27.9721L155.313 28.4444L154.263 31.4197V35.0561L157.975 35.434L159.937 35.1978L161.968 34.4422L161.408 31.0891V22.2104L160.567 21.3131L160.637 21.2659L161.268 18.4323L161.198 16.8472V16.0443C161.198 15.7138 161.127 15.2887 161.127 14.9109C161.057 14.6275 161.057 13.4469 161.057 13.0218L161.198 10.646L160.917 9.60699L161.338 7.62346H163.509L165.611 7.71791L166.311 7.8596H169.463L169.674 2.46958L169.253 0.486055L162.809 0.580509Z" fill="#272934"/>
<path d="M181.309 20.8653L184.094 24.6804L184.721 25.7637L187.296 29.0607L188.132 29.3433L188.062 30.144L190.499 33.912L192.17 35.7489L197.809 33.6294L197.878 32.2635L195.581 30.615L194.328 28.8252V28.8723L193.353 27.5064L192.936 27.3651V26.7528L190.151 23.55C189.663 23.079 189.246 22.8435 188.689 22.4196V21.6189C188.271 21.0537 187.436 20.253 186.948 19.5936L188.898 17.8038L190.081 16.8147L192.309 15.0249L195.511 12.3873L195.999 9.56129L192.657 7.48889C192.587 7.48889 191.474 7.72439 191.404 7.67729L190.986 6.49979L179.917 0L174.417 1.5072L174.696 5.5578L175.044 14.5539L174.487 15.4959L174.626 17.9451L174.905 23.4558V25.2927L175.531 25.905L174.487 27.7419L174.069 35.2308L178.664 35.5134L181.449 34.7598L181.379 30.8505L181.17 30.4266L180.961 25.7166L180.892 20.5827L181.309 20.8653ZM181.031 16.4379L180.752 12.246L180.613 11.7279L180.474 11.4453L180.195 10.5975L180.752 9.70259V9.23159L180.892 5.60489L187.296 9.89099L187.784 10.1265L189.176 11.304L188.41 11.9634C187.505 12.8112 185.834 14.2713 184.86 15.072L181.379 17.9922L180.892 18.1806L181.031 16.4379Z" fill="#272934"/>
<path d="M200.737 0.000488281L200.7 2.42139L200.663 3.52651L201.18 5.8422L202.547 5.89481L203.249 5.78959L203.803 5.68438H210.739L210.418 6.64992L210.145 6.89566L206.464 12.4258L206.805 12.8764L205.578 13.4088L201.897 18.7751L201.352 18.9799L201.488 21.5606L203.124 23.6497L205.578 27.1316L207.623 29.6714H208.373L208.168 30.3677L210.554 33.9315L210.622 35.2834L216.825 35.3244L216.961 34.8738L217.779 33.5628L221.46 28.3196L223.028 26.3533L223.096 25.6978L223.642 25.2882L226.982 21.2328L227.186 18.9799L224.869 15.9486L223.028 13.4908H222.346L222.006 12.3848L218.529 7.26439L217.328 5.27892L217.435 5.26328L219.319 5.42122L224.159 5.57905L225.082 5.84221L227.779 6.10536L227.927 2.68443L227.816 0.210922L225.969 0.47408L225.784 0.947787L225.119 0.526687L217.731 0.684629L216.807 1.053L214.775 0.89506L213.63 0.737236H206.722H205.392L204.763 1.36877L204.025 0.737236L200.737 0.000488281ZM214.099 9.31254L214.507 10.0909L216.075 12.5896L217.302 13.0402L216.689 13.5317L219.347 17.669L220.165 19.0618L220.711 20.0859L217.37 25.0015L217.439 25.7388H217.507L216.689 26.2304L214.507 30.5316L214.235 30.081L211.236 25.3702L209.872 23.6907L208.509 23.1172L209.191 22.6256L208.577 21.4377L207.691 20.0859L207.623 19.5944L209.872 16.0715L209.395 15.4161L210.349 15.2522L214.099 9.31254Z" fill="#272934"/>
<path d="M233.343 0.995415L234.072 4.33951L233.94 8.1075L234.271 14.0421L234.868 16.5855L234.47 26.7591V27.0417L234.338 27.7953L235.134 28.4547L234.006 30.3387L234.072 30.5271L233.873 30.5742L233.807 35.4726L237.323 35.5197L240.839 35.4255L240.906 33.0234L240.64 32.1285L240.574 31.6104L240.507 29.3025L240.242 27.0417V19.3173L242.896 23.2266L242.829 23.3208L245.085 25.9113L244.753 26.5236L248.269 32.1285L250.193 35.6139L251.852 35.661L256.629 33.777L254.705 30.7155L253.776 30.5742L254.108 29.9148L251.852 27.2301L249.53 23.6034L245.616 17.2449L245.284 16.8681L250.061 10.4154L249.862 10.2741L250.061 10.0386L254.108 5.28151L256.031 2.78521L253.975 1.65481L249.928 0.524414L247.871 3.96271L248.137 5.14021L246.279 6.45901L245.151 8.4843L242.498 13.0059L241.37 14.2776L240.375 16.1145L240.176 16.4913V15.0783L240.043 12.8175L240.706 1.13671L238.185 0.524414L233.343 0.995415Z" fill="#272934"/>
<path d="M2.2199 0.775146C0.990099 0.775146 0 1.75329 0 2.96832V33.2476C0 34.4626 0.990099 35.4407 2.2199 35.4407H32.8673C34.0971 35.4407 35.0872 34.4626 35.0872 33.2476V2.96832C35.0872 1.75329 34.0971 0.775146 32.8673 0.775146H2.2199ZM6.93792 4.29225L9.50986 4.86854L10.0878 5.36254L10.5791 4.86854H11.6195H17.0234L17.9193 4.99198L19.5087 5.1155L20.2312 4.82735L26.0107 4.70384L26.5309 5.03322L26.6755 4.66267L28.1203 4.45681L28.2071 6.39173L28.0915 9.06762L25.9819 8.86181L25.2595 8.65596L21.4738 8.53251L20 8.40893L19.916 8.42119L20.8558 9.97427L23.5752 13.9796L23.8418 14.8448H24.375L25.8146 16.7673L27.6275 19.1385L27.4676 20.9008L24.8548 24.0731L24.4283 24.3935L24.375 24.9062L23.1486 26.4443L20.2693 30.5457L19.6294 31.5712L19.5227 31.9236L14.6706 31.8916L14.6173 30.8342L12.751 28.0464L12.9109 27.5017H12.3245L10.7248 25.515L8.80533 22.7913L7.52554 21.1572L7.41889 19.1385L7.84555 18.9783L10.7248 14.7806L11.6846 14.3641L11.4181 14.0117L14.2973 9.68579L14.5106 9.49362L14.7619 8.73835H9.33648L8.90299 8.82064L8.35394 8.90291L7.28469 8.86181L6.88018 7.05041L6.90902 6.18592L6.93792 4.29225ZM17.3899 11.5764L14.4573 16.2226L13.7108 16.3508L14.0841 16.8634L12.3245 19.6192L12.3778 20.0036L13.071 21.061L13.5508 21.9903L13.0176 22.3748L14.0841 22.8234L15.1505 24.1372L17.4966 27.8221L17.7098 28.1746L19.4161 24.8101L20.056 24.4256H20.0027L19.9494 23.8488L22.5621 20.0036L22.1354 19.2026L21.4957 18.1131L19.4161 14.8768L19.896 14.4923L18.9362 14.1398L17.7098 12.1853L17.3899 11.5764Z" fill="#272934"/>
</svg>
